<svg width="65" height="64" viewBox="0 0 65 64" fill="none" xmlns="http://www.w3.org/2000/svg">
<path id="Vector" d="M32.5932 0C14.5398 0 0.548828 13.1923 0.548828 31.011C0.548828 40.3309 4.37919 48.385 10.614 53.9486C11.6905 54.9166 11.4688 55.4774 11.6519 61.4548C11.6663 61.8735 11.7829 62.2823 11.9916 62.6455C12.2004 63.0088 12.4948 63.3155 12.8493 63.5388C13.2038 63.7622 13.6075 63.8954 14.0253 63.927C14.4431 63.9585 14.8623 63.8873 15.2463 63.7196C22.0677 60.7161 22.1554 60.4789 23.3119 60.7935C43.0748 66.232 64.4957 53.5863 64.4957 31.011C64.4957 13.1923 50.6478 0 32.5932 0ZM51.834 23.8644L42.4224 38.7621C42.067 39.3223 41.5997 39.8031 41.0498 40.1743C40.4999 40.5455 39.8793 40.7991 39.2267 40.9193C38.5742 41.0395 37.9039 41.0236 37.2578 40.8726C36.6117 40.7217 36.0038 40.439 35.4721 40.0421L27.9841 34.4386C27.6494 34.1876 27.2422 34.0519 26.8238 34.0519C26.4053 34.0519 25.9982 34.1876 25.6634 34.4386L15.5596 42.1008C14.211 43.123 12.4448 41.5078 13.3537 40.0808L22.7652 25.1831C23.1205 24.6228 23.5877 24.1419 24.1376 23.7706C24.6875 23.3992 25.3082 23.1455 25.9608 23.0254C26.6134 22.9052 27.2837 22.9211 27.9299 23.0721C28.576 23.2232 29.1839 23.5061 29.7156 23.9031L37.201 29.5054C37.5357 29.7564 37.9429 29.8921 38.3613 29.8921C38.7797 29.8921 39.1869 29.7564 39.5216 29.5054L49.6306 21.8509C50.9766 20.8222 52.7429 22.4361 51.834 23.8644Z" fill="white"/>
</svg>
